<?xml version="1.0" standalone="no"?>
<!DOCTYPE svg PUBLIC "-//W3C//DTD SVG 20010904//EN"
 "http://www.w3.org/TR/2001/REC-SVG-20010904/DTD/svg10.dtd">
<svg version="1.0" xmlns="http://www.w3.org/2000/svg"
 width="1080.000000pt" height="1843.000000pt" viewBox="0 0 1080.000000 1843.000000"
 preserveAspectRatio="xMidYMid meet">

<g transform="translate(0.000000,1843.000000) scale(0.100000,-0.100000)"
fill="#000000" stroke="none">
<path d="M3710 18333 c0 -157 -49 -657 -91 -928 -185 -1212 -556 -2464 -1274
-4310 -54 -137 -119 -304 -145 -370 -294 -751 -326 -834 -458 -1190 -131 -352
-258 -779 -297 -1005 -20 -112 -22 -326 -5 -450 72 -518 388 -1055 901 -1530
68 -63 142 -130 164 -149 50 -41 36 -38 -129 31 -422 176 -812 434 -1199 795
-61 56 -112 101 -115 99 -6 -7 89 -230 135 -316 217 -399 585 -783 1031 -1074
41 -26 72 -49 70 -51 -8 -9 -297 17 -442 40 -222 35 -448 95 -894 240 -429
140 -635 196 -800 219 -62 9 -120 16 -129 16 -9 0 17 -23 58 -52 123 -86 252
-192 503 -413 332 -292 499 -432 655 -549 338 -252 670 -420 989 -500 210 -53
272 -60 532 -61 255 0 347 9 549 56 46 11 86 17 89 14 14 -13 -178 -243 -438
-525 -392 -426 -518 -574 -645 -765 -200 -301 -318 -588 -372 -911 -25 -150
-25 -527 0 -699 21 -144 77 -388 123 -540 42 -139 127 -375 135 -375 3 0 9 34
12 76 8 90 69 468 92 569 48 208 133 473 184 573 18 34 18 34 24 -204 33
-1245 409 -2194 1181 -2982 121 -124 262 -253 254 -232 -4 8 -26 58 -49 110
-121 277 -226 565 -284 785 -34 131 -75 323 -75 354 0 9 41 -63 91 -159 176
-340 347 -625 586 -979 124 -184 346 -495 376 -526 12 -13 13 -14 -66 245
-131 434 -224 766 -266 956 -16 73 -32 111 -79 190 -87 147 -203 371 -272 529
-104 233 -218 540 -207 551 3 3 42 -3 88 -13 131 -28 462 -25 629 6 217 40
452 129 606 229 l62 40 83 -24 c74 -21 161 -40 267 -58 31 -5 33 -4 57 50 103
234 193 586 239 946 42 316 50 446 50 788 0 462 -42 895 -129 1316 -121 594
-301 1038 -538 1332 -63 77 -65 82 -41 82 19 0 52 -25 122 -93 284 -274 573
-486 852 -624 130 -64 336 -143 375 -143 8 0 15 -2 15 -4 0 -3 -20 -76 -45
-163 -142 -498 -225 -1130 -225 -1713 0 -647 116 -1334 290 -1716 33 -72 12
-68 175 -37 198 38 430 140 615 271 111 78 308 271 402 392 455 588 715 1471
678 2300 -10 204 -29 353 -65 505 -13 55 -33 146 -45 202 -22 110 -92 349
-116 396 -14 27 -14 29 13 50 15 12 64 55 110 95 45 41 85 74 90 73 4 0 11
-13 14 -28 4 -15 25 -107 47 -203 191 -815 252 -1662 177 -2455 -31 -328 -98
-735 -169 -1025 -178 -724 -491 -1452 -878 -2038 -26 -41 -48 -75 -48 -76 0
-1 40 -43 88 -93 141 -144 288 -348 423 -585 l66 -117 6 362 c3 199 11 407 17
462 13 128 50 356 59 374 5 7 11 -69 15 -170 12 -330 34 -509 87 -729 29 -119
102 -324 118 -335 5 -2 13 33 20 78 40 288 138 532 400 997 297 525 398 798
461 1245 50 358 49 811 -5 1279 -34 294 -33 305 16 176 206 -550 365 -1111
449 -1590 12 -69 23 -126 24 -128 6 -5 76 159 100 230 46 142 60 256 60 478 0
159 -5 236 -22 345 -101 651 -450 1446 -955 2173 l-79 113 17 72 c10 40 38
140 62 222 361 1225 868 2183 1747 3299 82 103 146 189 144 190 -6 6 -134 45
-278 85 -190 53 -444 113 -600 141 -69 12 -131 24 -137 26 -8 2 15 38 57 90
167 208 268 436 312 704 16 98 16 390 0 505 -45 313 -133 603 -370 1219 l-20
50 -6 -40 c-3 -21 -10 -77 -16 -124 -53 -415 -151 -812 -316 -1270 -11 -30
-22 12 -29 109 -14 200 -76 595 -146 931 -124 598 -306 1220 -655 2245 -429
1262 -575 1731 -724 2326 -113 457 -216 1009 -252 1352 -6 64 -15 114 -19 110
-9 -10 -123 -375 -182 -588 -263 -934 -417 -1836 -488 -2845 -17 -249 -23
-1014 -10 -1280 26 -521 80 -991 162 -1414 15 -83 27 -151 25 -153 -5 -5 -181
364 -236 497 -198 474 -349 984 -445 1508 -16 84 -32 149 -36 145 -15 -17
-103 -306 -134 -443 -65 -286 -92 -504 -101 -835 -18 -621 95 -1312 315 -1935
l41 -115 -22 -18 c-15 -13 -30 -16 -52 -11 -81 17 -119 85 -147 264 -37 225
-50 285 -77 334 -15 27 -32 51 -38 53 -7 3 -13 -32 -17 -104 -3 -59 -15 -142
-26 -183 -12 -41 -21 -93 -21 -115 0 -49 43 -141 127 -275 78 -123 123 -214
162 -324 31 -87 101 -351 101 -379 0 -8 -60 -60 -133 -115 -142 -106 -284
-222 -379 -310 l-58 -54 -11 29 c-70 177 -169 531 -170 608 0 22 11 119 24
215 59 411 81 720 81 1150 0 367 -9 511 -50 830 -27 210 -100 544 -161 735
l-29 90 -12 -232 c-42 -776 -159 -1341 -394 -1901 -33 -79 -62 -141 -64 -139
-3 2 1 76 8 163 19 243 16 1069 -5 1374 -66 943 -191 1796 -398 2720 -239
1064 -575 2106 -919 2850 -40 85 -77 167 -83 183 -19 46 -27 31 -27 -50z
m3049 -7979 c1 -7 -11 -19 -25 -29 -34 -22 -37 -16 -57 89 -32 170 -32 171 28
56 29 -58 54 -110 54 -116z m-1069 -679 l40 -149 -100 -102 c-55 -55 -100 -94
-100 -86 0 8 18 90 39 181 22 91 44 193 51 226 13 71 19 89 25 83 2 -2 23 -71
45 -153z m-1491 -1981 c2 -2 2 -5 0 -6 -2 -2 -19 -16 -37 -32 l-32 -30 0 43 0
43 33 -7 c17 -4 34 -9 36 -11z m-569 -632 c0 -4 30 -43 68 -86 l67 -80 -22
-105 c-12 -58 -31 -146 -43 -194 -153 -630 -45 -1525 266 -2211 30 -65 54
-123 54 -127 0 -5 -19 -13 -42 -19 -141 -35 -351 -125 -470 -200 -48 -29 -48
-29 -53 -7 -8 35 -43 337 -57 497 -19 216 -16 891 6 1150 39 467 98 881 182
1268 13 63 24 115 24 118 0 2 5 4 10 4 6 0 10 -3 10 -8z"/>
<path d="M2488 2594 c-60 -32 -78 -129 -33 -183 53 -62 137 -62 190 0 30 36
34 106 9 145 -34 51 -110 69 -166 38z"/>
<path d="M2575 1881 c-42 -19 -70 -60 -70 -107 0 -36 6 -49 33 -76 61 -62 154
-37 182 48 26 79 -69 168 -145 135z"/>
<path d="M3067 1409 c-9 -5 -24 -24 -33 -40 -12 -25 -13 -37 -4 -65 15 -43 44
-64 93 -64 53 0 87 35 87 90 0 55 -34 90 -87 90 -21 0 -46 -5 -56 -11z"/>
</g>
</svg>
